HIERARCHY
ROOT Hips
{
	OFFSET 0.000000 83.214638 0.000000
	CHANNELS 6 Xposition Yposition Zposition Xrotation Yrotation Zrotation
	JOINT Pelvis
	{
		OFFSET 0.000000 0.000000 0.000000
		CHANNELS 3 Xrotation Yrotation Zrotation
		JOINT LeftUpLeg
		{
			OFFSET 8.479700 -4.795502 -0.379100
			CHANNELS 3 Xrotation Yrotation Zrotation
			JOINT LeftLeg
			{
				OFFSET 0.024144 -32.555107 0.112900
				CHANNELS 3 Xrotation Yrotation Zrotation
				JOINT LeftFoot
				{
					OFFSET -0.024144 -32.638630 -3.012600
					CHANNELS 3 Xrotation Yrotation Zrotation
					JOINT LeftToeBase
					{
						OFFSET 0.970200 -13.225400 11.864200
						CHANNELS 3 Xrotation Yrotation Zrotation
						End Site
						{
							OFFSET 0.000000 12.319262 0.000000
						}
					}
					JOINT LFootTongue
					{
						OFFSET 1.142400 -1.059800 6.665200
						CHANNELS 3 Xrotation Yrotation Zrotation
						End Site
						{
							OFFSET 0.000000 12.319262 0.000000
						}
					}
				}
				JOINT LeftPantLeg
				{
					OFFSET 0.918482 -16.533964 -2.284700
					CHANNELS 3 Xrotation Yrotation Zrotation
					End Site
					{
						OFFSET 0.350399 24.744368 0.000000
					}
				}
			}
		}
		JOINT RightUpLeg
		{
			OFFSET -8.479700 -4.795502 -0.379100
			CHANNELS 3 Xrotation Yrotation Zrotation
			JOINT RightLeg
			{
				OFFSET -0.023144 -32.555092 0.112900
				CHANNELS 3 Xrotation Yrotation Zrotation
				JOINT RightFoot
				{
					OFFSET 0.023144 -32.638641 -3.012700
					CHANNELS 3 Xrotation Yrotation Zrotation
					JOINT RightToeBase
					{
						OFFSET -0.970200 -13.225400 11.864200
						CHANNELS 3 Xrotation Yrotation Zrotation
						End Site
						{
							OFFSET 0.000000 12.319244 0.000000
						}
					}
					JOINT RFootTongue
					{
						OFFSET -1.142200 -1.059800 6.665200
						CHANNELS 3 Xrotation Yrotation Zrotation
						End Site
						{
							OFFSET 0.000000 12.319243 0.000000
						}
					}
				}
				JOINT RightPantLeg
				{
					OFFSET -0.919482 -16.533978 -2.284800
					CHANNELS 3 Xrotation Yrotation Zrotation
					End Site
					{
						OFFSET -0.350400 24.744419 0.000000
					}
				}
			}
		}
	}
	JOINT Spine
	{
		OFFSET 0.000000 7.722000 1.166200
		CHANNELS 3 Xrotation Yrotation Zrotation
		JOINT Spine1
		{
			OFFSET 0.000000 12.024101 0.248800
			CHANNELS 3 Xrotation Yrotation Zrotation
			JOINT Spine2
			{
				OFFSET 0.000000 11.502998 -0.491200
				CHANNELS 3 Xrotation Yrotation Zrotation
				JOINT Neck
				{
					OFFSET 0.000000 18.430702 -3.123100
					CHANNELS 3 Xrotation Yrotation Zrotation
					JOINT Head
					{
						OFFSET 0.000000 9.051102 1.034000
						CHANNELS 3 Xrotation Yrotation Zrotation
						JOINT HairB
						{
							OFFSET 0.208400 24.786102 24.822300
							CHANNELS 3 Xrotation Yrotation Zrotation
							End Site
							{
								OFFSET 0.000000 32.263779 0.000000
							}
						}
						JOINT HairA
						{
							OFFSET -7.081100 24.428299 23.196600
							CHANNELS 3 Xrotation Yrotation Zrotation
							End Site
							{
								OFFSET 0.000000 32.263779 0.000000
							}
						}
						JOINT Hat
						{
							OFFSET 16.728800 15.048294 -15.439601
							CHANNELS 3 Xrotation Yrotation Zrotation
							End Site
							{
								OFFSET 0.000000 32.263779 0.000000
							}
						}
					}
				}
				JOINT LeftShoulder
				{
					OFFSET 6.197800 13.665199 -4.064700
					CHANNELS 3 Xrotation Yrotation Zrotation
					JOINT LeftArm
					{
						OFFSET 7.778100 -0.187103 -1.709300
						CHANNELS 3 Xrotation Yrotation Zrotation
						JOINT LeftForeArm
						{
							OFFSET 22.049376 0.000000 0.000000
							CHANNELS 3 Xrotation Yrotation Zrotation
							JOINT LeftHand
							{
								OFFSET 23.009392 0.000000 0.000000
								CHANNELS 3 Xrotation Yrotation Zrotation
								JOINT LeftHandThumb1
								{
									OFFSET 3.507191 -2.063065 3.133727
									CHANNELS 3 Xrotation Yrotation Zrotation
									JOINT LeftHandThumb2
									{
										OFFSET 3.101337 -1.790558 1.790558
										CHANNELS 3 Xrotation Yrotation Zrotation
										JOINT LeftHandThumb3
										{
											OFFSET 3.058640 -1.765907 1.765906
											CHANNELS 3 Xrotation Yrotation Zrotation
											End Site
											{
												OFFSET -0.415260 3.926476 -0.049563
											}
										}
									}
								}
								JOINT LeftHandIndex1
								{
									OFFSET 11.334419 -0.901459 3.706815
									CHANNELS 3 Xrotation Yrotation Zrotation
									JOINT LeftHandIndex2
									{
										OFFSET 3.283112 0.000000 0.000000
										CHANNELS 3 Xrotation Yrotation Zrotation
										JOINT LeftHandIndex3
										{
											OFFSET 3.323853 0.000000 0.000000
											CHANNELS 3 Xrotation Yrotation Zrotation
											End Site
											{
												OFFSET -1.135597 3.097809 0.402452
											}
										}
									}
								}
								JOINT LeftHandMiddle1
								{
									OFFSET 11.335861 0.000000 0.000000
									CHANNELS 3 Xrotation Yrotation Zrotation
									JOINT LeftHandMiddle2
									{
										OFFSET 3.410492 0.000000 0.000000
										CHANNELS 3 Xrotation Yrotation Zrotation
										JOINT LeftHandMiddle3
										{
											OFFSET 3.312172 0.000000 0.000000
											CHANNELS 3 Xrotation Yrotation Zrotation
											End Site
											{
												OFFSET -1.150200 3.080154 0.400270
											}
										}
									}
								}
								JOINT LeftHandRing1
								{
									OFFSET 11.514786 -0.013176 -3.003090
									CHANNELS 3 Xrotation Yrotation Zrotation
									JOINT LeftHandRing2
									{
										OFFSET 3.053307 0.000000 0.000000
										CHANNELS 3 Xrotation Yrotation Zrotation
										JOINT LeftHandRing3
										{
											OFFSET 3.295807 0.000000 0.000000
											CHANNELS 3 Xrotation Yrotation Zrotation
											End Site
											{
												OFFSET -1.281006 3.013344 0.375733
											}
										}
									}
								}
								JOINT LeftHandPinky1
								{
									OFFSET 10.518692 -0.960396 -5.730441
									CHANNELS 3 Xrotation Yrotation Zrotation
									JOINT LeftHandPinky2
									{
										OFFSET 2.861649 0.000000 0.000000
										CHANNELS 3 Xrotation Yrotation Zrotation
										JOINT LeftHandPinky3
										{
											OFFSET 2.863380 0.000000 0.000000
											CHANNELS 3 Xrotation Yrotation Zrotation
											End Site
											{
												OFFSET -0.843597 2.711159 0.369971
											}
										}
									}
								}
							}
							JOINT LSleeve
							{
								OFFSET 6.676277 -0.344902 -1.011730
								CHANNELS 3 Xrotation Yrotation Zrotation
								End Site
								{
									OFFSET 0.000000 14.885353 0.000000
								}
							}
						}
					}
				}
				JOINT RightShoulder
				{
					OFFSET -6.197800 13.665199 -4.064700
					CHANNELS 3 Xrotation Yrotation Zrotation
					JOINT RightArm
					{
						OFFSET -7.778100 -0.187103 -1.709300
						CHANNELS 3 Xrotation Yrotation Zrotation
						JOINT RightForeArm
						{
							OFFSET -22.049376 0.000000 0.000000
							CHANNELS 3 Xrotation Yrotation Zrotation
							JOINT RightHand
							{
								OFFSET -23.009392 0.000000 0.000000
								CHANNELS 3 Xrotation Yrotation Zrotation
								JOINT RightHandThumb1
								{
									OFFSET -3.507191 -2.063065 3.133727
									CHANNELS 3 Xrotation Yrotation Zrotation
									JOINT RightHandThumb2
									{
										OFFSET -3.101337 -1.790558 1.790558
										CHANNELS 3 Xrotation Yrotation Zrotation
										JOINT RightHandThumb3
										{
											OFFSET -3.058640 -1.765907 1.765906
											CHANNELS 3 Xrotation Yrotation Zrotation
											End Site
											{
												OFFSET 0.415260 3.926476 -0.049563
											}
										}
									}
								}
								JOINT RightHandIndex1
								{
									OFFSET -11.334419 -0.901459 3.706815
									CHANNELS 3 Xrotation Yrotation Zrotation
									JOINT RightHandIndex2
									{
										OFFSET -3.283112 0.000000 0.000000
										CHANNELS 3 Xrotation Yrotation Zrotation
										JOINT RightHandIndex3
										{
											OFFSET -3.323853 0.000000 0.000000
											CHANNELS 3 Xrotation Yrotation Zrotation
											End Site
											{
												OFFSET 1.135597 3.097809 0.402452
											}
										}
									}
								}
								JOINT RightHandMiddle1
								{
									OFFSET -11.335861 0.000000 0.000000
									CHANNELS 3 Xrotation Yrotation Zrotation
									JOINT RightHandMiddle2
									{
										OFFSET -3.410492 0.000000 0.000000
										CHANNELS 3 Xrotation Yrotation Zrotation
										JOINT RightHandMiddle3
										{
											OFFSET -3.312172 0.000000 0.000000
											CHANNELS 3 Xrotation Yrotation Zrotation
											End Site
											{
												OFFSET 1.150200 3.080154 0.400270
											}
										}
									}
								}
								JOINT RightHandRing1
								{
									OFFSET -11.514786 -0.013176 -3.003090
									CHANNELS 3 Xrotation Yrotation Zrotation
									JOINT RightHandRing2
									{
										OFFSET -3.053307 0.000000 0.000000
										CHANNELS 3 Xrotation Yrotation Zrotation
										JOINT RightHandRing3
										{
											OFFSET -3.295807 0.000000 0.000000
											CHANNELS 3 Xrotation Yrotation Zrotation
											End Site
											{
												OFFSET 1.281006 3.013344 0.375733
											}
										}
									}
								}
								JOINT RightHandPinky1
								{
									OFFSET -10.518692 -0.960396 -5.730441
									CHANNELS 3 Xrotation Yrotation Zrotation
									JOINT RightHandPinky2
									{
										OFFSET -2.861649 0.000000 0.000000
										CHANNELS 3 Xrotation Yrotation Zrotation
										JOINT RightHandPinky3
										{
											OFFSET -2.863380 0.000000 0.000000
											CHANNELS 3 Xrotation Yrotation Zrotation
											End Site
											{
												OFFSET 0.843597 2.711159 0.369971
											}
										}
									}
								}
							}
							JOINT RSleeve
							{
								OFFSET -6.676277 -0.344902 -1.011730
								CHANNELS 3 Xrotation Yrotation Zrotation
								End Site
								{
									OFFSET 0.000000 14.885353 0.000000
								}
							}
						}
					}
				}
				JOINT Backpack
				{
					OFFSET 0.000000 -2.471497 36.677502
					CHANNELS 3 Xrotation Yrotation Zrotation
					End Site
					{
						OFFSET 0.000000 20.427315 0.000000
					}
				}
				JOINT Hood
				{
					OFFSET 0.000000 18.754097 -10.431000
					CHANNELS 3 Xrotation Yrotation Zrotation
					JOINT Hood1
					{
						OFFSET 0.000000 -5.011002 -7.685901
						CHANNELS 3 Xrotation Yrotation Zrotation
						End Site
						{
							OFFSET 0.000000 9.175140 0.000000
						}
					}
				}
				JOINT LHoodieString
				{
					OFFSET 5.250500 16.397697 3.089900
					CHANNELS 3 Xrotation Yrotation Zrotation
					JOINT LHoodieString1
					{
						OFFSET 0.257700 -6.364304 3.694600
						CHANNELS 3 Xrotation Yrotation Zrotation
						JOINT LHoodieString2
						{
							OFFSET 0.000000 -9.643799 2.679100
							CHANNELS 3 Xrotation Yrotation Zrotation
							End Site
							{
								OFFSET 0.000000 10.009018 0.000000
							}
						}
					}
				}
				JOINT RHoodieString
				{
					OFFSET -5.250500 16.397697 3.089900
					CHANNELS 3 Xrotation Yrotation Zrotation
					JOINT RHoodieString1
					{
						OFFSET -0.257700 -6.364304 3.694600
						CHANNELS 3 Xrotation Yrotation Zrotation
						JOINT RHoodieString2
						{
							OFFSET 0.000000 -9.643799 2.679100
							CHANNELS 3 Xrotation Yrotation Zrotation
							End Site
							{
								OFFSET 0.000000 10.009018 0.000000
							}
						}
					}
				}
			}
			JOINT LBackpack_Strap
			{
				OFFSET 15.223200 -7.719803 -6.610900
				CHANNELS 3 Xrotation Yrotation Zrotation
				End Site
				{
					OFFSET 0.000000 16.040596 0.000000
				}
			}
			JOINT RBackpack_Strap
			{
				OFFSET -15.223000 -7.719803 -6.610900
				CHANNELS 3 Xrotation Yrotation Zrotation
				End Site
				{
					OFFSET 0.000000 16.040596 0.000000
				}
			}
		}
	}
	JOINT BoyFacialAnim_Joint
	{
		OFFSET 1.000000 -82.208099 -1.550900
		CHANNELS 3 Xrotation Yrotation Zrotation
		End Site
		{
			OFFSET 0.000000 30.012791 0.000000
		}
	}
}
MOTION
Frames: 4
Frame Time: 0.016667
-0.169131 73.868347 0.174998 3.016507 -58.257347 6.570148 -0.000000 0.000004 -0.000000 -35.247888 10.179372 24.280079 43.157042 -7.473708 -9.787614 -9.604469 -2.815516 -8.045404 -0.000000 -0.000000 -0.000000 -0.000000 -0.000000 -0.000000 0.000001 -0.000001 0.000000 -32.837080 -8.277062 -25.536440 48.053796 2.410779 -7.553277 -19.169431 2.844735 20.706921 -0.000000 0.000000 0.000000 -0.000000 0.000000 0.000000 0.000001 0.000002 0.000000 11.191592 0.111594 -2.787685 8.434575 0.027702 -5.592319 8.457057 0.027875 -5.591870 -21.555741 25.063388 12.062603 -0.294014 25.465829 -3.208972 0.000001 0.000000 0.000000 0.000001 0.000000 0.000000 0.000001 0.000000 0.000000 -6.221673 -11.503782 -4.023838 -23.061662 9.569072 -36.639734 0.046293 -43.170825 -0.011025 22.743589 -5.684970 15.978966 -1.064228 -7.954926 8.490092 2.373417 19.986093 -2.038329 -0.000000 -0.000000 0.000002 13.340895 -1.006685 10.682293 -0.167599 0.303413 -31.105675 0.000001 0.000000 -0.000002 8.495429 -0.329507 -0.915314 0.231523 0.661196 -29.901817 -0.000002 0.000001 0.000004 6.111754 3.150893 -16.210952 0.047075 0.322414 -30.125451 0.000000 0.000002 -0.000002 -5.636023 7.709899 -13.878619 0.224376 0.276584 -46.588358 -0.000002 0.000002 -0.000002 -0.000000 0.000001 -0.000002 -5.488248 10.658260 2.466553 -41.473155 -26.756168 30.079480 24.953761 111.863909 -23.306719 -8.702492 12.422810 -9.802170 0.264998 10.061079 -10.888488 1.383814 -17.412872 3.016270 0.000001 0.000003 -0.000001 19.443605 11.174422 -13.340177 -0.118669 -0.322692 18.035596 -0.000002 0.000001 0.000004 4.320473 2.436944 -4.811715 0.349128 -0.461248 26.890310 -0.000002 0.000002 0.000004 -7.005595 -10.695163 5.719843 0.111866 -0.089181 26.155909 -0.000000 -0.000003 0.000003 -19.433504 -20.238231 5.987856 0.223792 -0.085796 36.844622 -0.000001 -0.000001 -0.000003 0.000002 -0.000002 -0.000003 -0.000000 0.000000 -0.000000 -0.000000 0.000000 -0.000000 -0.000000 0.000000 -0.000000 -0.000000 0.000000 -0.000000 -0.000000 0.000000 0.000001 -0.000000 -0.000000 -0.000000 -0.000000 0.000000 -0.000000 -0.000000 0.000000 0.000001 -0.000000 -0.000000 -0.000000 0.000001 0.000003 -0.000001 0.000001 0.000003 -0.000001 -0.000000 0.000004 -0.000000 
-0.159659 73.869652 0.206574 3.040088 -58.227370 6.589254 -0.000000 -0.000004 0.000000 -35.274314 10.182553 24.253962 43.184561 -7.494323 -9.794337 -9.626901 -2.818707 -8.006185 0.000000 0.000001 -0.000000 0.000000 0.000001 -0.000000 -0.000001 -0.000002 0.000001 -32.813356 -8.274922 -25.562753 48.004704 2.389716 -7.550131 -19.150575 2.839986 20.746502 -0.000000 0.000001 0.000000 -0.000000 0.000001 0.000000 -0.000001 0.000001 0.000001 11.191602 0.110793 -2.790816 8.434583 0.027706 -5.592322 8.457055 0.027858 -5.591857 -21.547782 25.033955 12.079128 -0.272050 25.428504 -3.263956 0.000000 -0.000000 -0.000000 0.000000 -0.000000 -0.000000 0.000000 -0.000000 -0.000000 -6.224953 -11.506075 -4.040195 -23.270318 9.617862 -36.667860 0.069793 -43.129533 0.031140 23.501479 -5.369452 16.129531 -1.038528 -7.796622 8.549069 2.420529 20.133369 -1.982853 -0.000000 -0.000001 0.000002 13.341394 -1.007243 10.512657 -0.167400 0.303530 -31.275364 -0.000000 0.000001 0.000000 8.492726 -0.327826 -1.084972 0.232454 0.661779 -30.071513 -0.000002 -0.000001 0.000002 6.109968 3.152847 -16.380447 0.047136 0.323608 -30.295167 -0.000001 0.000000 -0.000002 -5.636743 7.710936 -14.047785 0.225079 0.277156 -46.757979 -0.000000 0.000001 -0.000002 -0.000000 0.000002 0.000001 -5.494059 10.657921 2.495531 -41.054426 -26.626302 30.531591 28.810097 112.648275 -27.515654 -7.502681 11.836802 -10.784962 0.243504 10.220481 -10.828473 1.330418 -17.266319 3.075584 0.000001 0.000004 -0.000000 19.443322 11.174249 -13.513176 -0.118823 -0.322587 17.863217 -0.000003 0.000000 0.000005 4.323247 2.438518 -4.984190 0.348174 -0.460556 26.717924 0.000000 0.000001 -0.000002 -7.004215 -10.693734 5.546728 0.111869 -0.088048 25.983460 -0.000003 0.000003 0.000003 -19.432976 -20.237560 5.812516 0.223222 -0.085097 36.672194 -0.000002 -0.000003 -0.000000 -0.000000 0.000001 -0.000001 -0.000000 -0.000000 -0.000000 -0.000000 -0.000000 -0.000000 -0.000000 -0.000000 -0.000000 -0.000000 -0.000000 -0.000000 -0.000000 -0.000000 -0.000001 -0.000000 -0.000000 -0.000001 -0.000000 -0.000000 -0.000000 -0.000000 -0.000000 -0.000001 -0.000000 -0.000000 -0.000001 -0.000000 -0.000000 -0.000000 -0.000000 -0.000000 -0.000000 -0.000000 -0.000004 0.000000 
-0.130106 73.873817 0.296542 3.061362 -58.196900 6.607643 -0.000000 -0.000001 0.000000 -35.304855 10.197119 24.187259 43.274337 -7.513194 -9.810677 -9.705188 -2.824444 -7.915691 -0.000000 0.000003 -0.000000 -0.000000 0.000003 -0.000000 0.000000 -0.000000 -0.000000 -32.748660 -8.272862 -25.645518 47.872147 2.394866 -7.537332 -19.088714 2.833379 20.832446 0.000000 0.000001 -0.000000 0.000000 0.000001 -0.000000 0.000000 -0.000003 0.000001 11.191641 0.108517 -2.800187 8.427926 0.021800 -5.590526 8.450532 0.024358 -5.590738 -21.522814 24.948425 12.125789 -0.210773 25.320601 -3.422930 0.000000 0.000000 0.000001 0.000000 0.000000 0.000001 0.000000 0.000000 0.000001 -6.234551 -11.512588 -4.088058 -23.549888 9.594471 -36.642572 0.138476 -42.979273 0.153735 24.249789 -5.074749 16.216155 -1.011769 -7.630826 8.610738 2.469904 20.287605 -1.924798 0.000001 -0.000000 -0.000000 13.341953 -1.007909 10.334936 -0.167213 0.303596 -31.453066 -0.000000 -0.000002 -0.000004 8.489892 -0.326100 -1.262662 0.233446 0.662295 -30.249282 -0.000002 0.000001 -0.000003 6.109454 3.154871 -16.558105 0.047208 0.324732 -30.472865 -0.000002 0.000001 -0.000004 -5.635086 7.712066 -14.225273 0.225754 0.277715 -46.935762 -0.000000 0.000002 0.000000 0.000001 0.000001 0.000004 -5.511181 10.663435 2.580818 -40.669433 -26.535567 30.926598 30.091870 112.878459 -29.366333 -7.446037 11.442777 -11.863746 0.220552 10.390395 -10.764404 1.272173 -17.106765 3.140228 0.000000 0.000004 -0.000000 19.443035 11.174035 -13.701387 -0.119009 -0.322421 17.675445 0.000001 -0.000001 -0.000000 4.326288 2.440244 -5.171987 0.347176 -0.459862 26.530162 0.000001 0.000002 0.000002 -7.002660 -10.692181 5.358392 0.111897 -0.086789 25.795746 -0.000004 -0.000001 -0.000001 -19.432402 -20.236782 5.622103 0.222541 -0.084423 36.484456 -0.000000 0.000000 0.000005 0.000001 -0.000002 -0.000002 -0.000000 0.000003 -0.000002 -0.000000 0.000003 -0.000002 -0.000000 0.000003 -0.000002 -0.000000 0.000003 -0.000002 -0.000000 0.000003 -0.000003 -0.000000 0.000000 -0.000000 -0.000000 0.000003 -0.000002 -0.000000 0.000003 -0.000003 -0.000000 0.000000 -0.000000 0.000001 -0.000001 0.000001 0.000001 -0.000001 0.000001 -0.000000 -0.000001 0.000000 
-0.081768 73.880684 0.441024 3.082025 -58.166314 6.626441 -0.000000 -0.000000 -0.000000 -35.338702 10.223669 24.081963 43.419536 -7.529428 -9.835454 -9.835618 -2.832813 -7.774396 -0.000000 -0.000001 0.000000 -0.000000 -0.000001 0.000000 0.000001 0.000004 -0.000000 -32.643926 -8.269920 -25.778838 47.658113 2.420694 -7.515242 -18.986324 2.825520 20.960396 -0.000000 0.000001 -0.000000 -0.000000 0.000001 -0.000000 -0.000001 -0.000000 -0.000004 11.191389 0.100863 -2.814571 8.417017 0.011630 -5.587464 8.439841 0.017433 -5.588559 -21.483276 24.810493 12.200238 -0.116153 25.146472 -3.675493 0.000000 -0.000000 -0.000000 0.000000 -0.000000 -0.000000 0.000000 -0.000000 -0.000000 -6.250115 -11.523031 -4.165733 -23.890550 9.502012 -36.578894 0.247198 -42.732317 0.348575 24.987926 -4.799928 16.250147 -0.984034 -7.458095 8.674864 2.521184 20.448128 -1.864329 0.000001 -0.000000 0.000001 13.342525 -1.008610 10.149957 -0.167020 0.303754 -31.638099 -0.000001 0.000000 -0.000005 8.486901 -0.324297 -1.447679 0.234528 0.663178 -30.434302 -0.000001 -0.000001 -0.000000 6.108908 3.156995 -16.743042 0.047343 0.325783 -30.657915 0.000000 0.000003 0.000002 -5.633347 7.713219 -14.410116 0.226468 0.278291 -47.120778 -0.000000 -0.000001 0.000001 0.000000 0.000000 0.000001 -5.532806 10.672760 2.720144 -40.331813 -26.475738 31.254082 31.604467 113.060845 -31.458178 -7.371044 11.217567 -13.032094 0.196118 10.570076 -10.696634 1.209466 -16.935280 3.209935 -0.000000 -0.000005 0.000001 19.442723 11.173854 -13.903710 -0.119178 -0.322257 17.473494 0.000001 0.000000 -0.000002 4.329553 2.442087 -5.373977 0.346098 -0.458875 26.328270 -0.000003 -0.000002 0.000001 -7.000946 -10.690059 5.156140 0.111881 -0.085433 25.593836 -0.000000 -0.000003 -0.000000 -19.431096 -20.232646 5.419753 0.221918 -0.083637 36.282498 0.000000 -0.000002 -0.000002 0.000000 -0.000001 0.000000 0.000001 0.000001 -0.000002 0.000001 0.000001 -0.000002 0.000001 0.000001 -0.000002 0.000001 0.000001 -0.000002 0.000001 0.000001 -0.000001 -0.000001 0.000000 0.000002 0.000001 0.000001 -0.000002 0.000001 0.000001 -0.000001 -0.000001 0.000000 0.000002 -0.000001 -0.000002 0.000001 -0.000001 -0.000002 0.000001 -0.000000 -0.000000 -0.000000 
